<?xml version="1.0" standalone="no"?>
<!DOCTYPE svg PUBLIC "-//W3C//DTD SVG 20010904//EN"
 "http://www.w3.org/TR/2001/REC-SVG-20010904/DTD/svg10.dtd">
<svg version="1.0" xmlns="http://www.w3.org/2000/svg"
 width="225.000000pt" height="225.000000pt" viewBox="0 0 225.000000 225.000000"
 preserveAspectRatio="xMidYMid meet">
<metadata>
Created by potrace 1.11, written by Peter Selinger 2001-2013
</metadata>
<g transform="translate(0.000000,225.000000) scale(0.100000,-0.100000)"
fill="#000000" stroke="none">
<path d="M0 1125 l0 -1125 1125 0 1125 0 0 1125 0 1125 -1125 0 -1125 0 0
-1125z m206 -146 c3 -6 17 -8 30 -5 35 9 61 -8 74 -50 24 -71 -6 -200 -52
-228 -30 -18 -32 2 -6 51 33 62 40 100 25 142 -15 43 -39 55 -29 14 11 -42 3
-82 -18 -93 -44 -24 -73 26 -50 88 8 24 9 37 1 45 -20 20 -44 -60 -37 -125 6
-61 -4 -75 -25 -35 -27 49 -11 175 25 199 17 11 54 9 62 -3z m1282 -35 c48
-13 18 -56 -55 -78 -20 -6 -23 -4 -23 19 0 56 23 73 78 59z m327 -4 c21 -8 24
-13 16 -29 -8 -15 -76 -51 -96 -51 -9 0 -5 51 5 71 12 21 35 24 75 9z m-155
-45 c6 -8 9 -23 6 -33 -7 -21 -74 -72 -94 -72 -18 0 -15 -14 9 -44 12 -15 30
-26 44 -26 25 0 65 42 65 68 0 12 3 13 11 5 16 -16 1 -70 -24 -88 -48 -33
-116 -7 -140 54 -9 22 -21 42 -27 46 -5 3 -10 13 -10 22 0 13 2 13 16 2 14
-11 19 -9 37 15 18 26 72 66 88 66 4 0 12 -7 19 -15z m-1056 -8 c26 -19 13
-52 -31 -72 -35 -17 -35 -18 -29 -65 4 -28 2 -51 -3 -54 -14 -9 -21 7 -28 66
-4 35 -13 57 -25 66 -10 7 -18 23 -18 35 1 21 1 22 15 3 15 -19 15 -19 37 1
20 18 41 30 59 32 3 1 13 -5 23 -12z m174 -15 c2 -15 -7 -32 -28 -52 -27 -25
-31 -35 -25 -58 3 -15 14 -35 22 -45 9 -9 13 -20 9 -24 -13 -14 -41 14 -56 55
-18 53 -45 57 -54 7 -7 -34 -22 -53 -33 -41 -4 3 -2 22 4 41 8 23 8 37 1 41
-7 4 -6 9 2 14 7 4 15 23 19 41 8 40 27 37 24 -3 -3 -41 19 -34 39 13 15 35
21 40 45 37 20 -2 29 -9 31 -26z m305 -4 c9 -11 17 -37 17 -58 0 -40 -23 -104
-41 -115 -20 -13 -23 5 -6 40 19 39 22 92 7 115 -7 11 -10 4 -10 -28 0 -30 -5
-44 -16 -49 -26 -10 -44 22 -33 60 11 39 11 37 0 37 -16 0 -32 -62 -25 -97 4
-19 2 -33 -4 -33 -14 0 -22 26 -22 76 0 39 -3 44 -22 45 -44 2 -73 -3 -80 -15
-14 -21 -8 -26 27 -26 19 0 35 -4 35 -10 0 -5 -18 -10 -39 -10 -33 0 -40 -4
-45 -25 -10 -40 1 -47 45 -25 22 12 44 18 49 15 17 -10 11 -29 -12 -44 -72
-45 -120 -27 -116 45 2 24 6 44 9 44 5 0 29 45 29 55 0 3 -8 6 -17 6 -28 2 58
18 100 18 23 1 37 -4 37 -11 0 -7 5 -5 11 5 9 16 19 18 58 12 28 -4 53 -14 64
-27z m295 23 c24 -15 10 -55 -26 -71 -33 -15 -33 -16 -29 -68 2 -29 0 -55 -5
-58 -11 -7 -28 40 -28 78 0 18 -10 42 -25 60 -24 29 -32 48 -19 48 4 0 12 -8
19 -17 12 -15 15 -15 45 10 33 29 47 32 68 18z m-923 -20 c8 -27 9 -102 0
-139 -8 -40 -35 -43 -35 -3 0 24 -4 28 -27 27 -20 -1 -29 -7 -33 -25 -3 -14
-11 -26 -18 -29 -29 -9 -2 100 40 161 23 32 64 37 73 8z m775 0 c11 -22 13
-77 4 -133 -8 -47 -34 -52 -34 -7 0 27 -3 30 -27 27 -19 -2 -29 -10 -33 -27
-6 -28 -27 -39 -35 -18 -7 18 30 118 56 151 24 31 54 34 69 7z m734 -12 c5
-14 5 -56 1 -93 -5 -55 -10 -67 -23 -64 -11 2 -17 13 -17 28 0 18 -6 26 -23
28 -18 3 -26 -3 -35 -27 -12 -33 -30 -36 -35 -8 -4 20 41 123 65 150 23 24 56
18 67 -14z m160 -1 c19 -46 28 -130 16 -148 -13 -20 -35 -6 -77 49 -33 42 -33
42 -33 14 0 -44 -11 -73 -27 -73 -12 0 -13 13 -7 73 3 39 10 76 15 81 12 13
32 -7 70 -66 36 -56 47 -50 30 17 -20 79 -11 113 13 53z m-654 -84 c0 -67 -2
-75 -17 -72 -15 3 -18 15 -18 68 0 59 7 79 28 80 4 0 7 -34 7 -76z m320 1 c0
-60 -3 -75 -15 -75 -15 0 -20 28 -16 95 2 39 8 55 21 55 6 0 10 -30 10 -75z"/>
<path d="M1465 910 c-3 -6 1 -7 9 -4 18 7 21 14 7 14 -6 0 -13 -4 -16 -10z"/>
<path d="M1600 855 c-18 -19 -20 -25 -8 -25 15 0 48 30 48 43 0 14 -17 6 -40
-18z"/>
<path d="M555 850 c-3 -6 1 -7 9 -4 18 7 21 14 7 14 -6 0 -13 -4 -16 -10z"/>
<path d="M726 854 c-9 -24 -7 -28 9 -14 17 14 20 30 6 30 -5 0 -12 -7 -15 -16z"/>
<path d="M1335 850 c-3 -6 1 -7 9 -4 18 7 21 14 7 14 -6 0 -13 -4 -16 -10z"/>
<path d="M406 851 c-3 -4 -10 -20 -15 -35 -10 -24 -8 -26 14 -26 22 0 25 4 25
35 0 33 -12 46 -24 26z"/>
<path d="M1175 830 c-20 -38 -19 -40 10 -40 22 0 25 4 25 35 0 43 -14 45 -35
5z"/>
<path d="M1906 838 c-23 -32 -20 -48 9 -48 21 0 25 5 25 29 0 39 -15 47 -34
19z"/>
</g>
</svg>
